<?xml version="1.0" encoding="utf-8"?>
<!-- Generator: Adobe Illustrator 27.5.0, SVG Export Plug-In . SVG Version: 6.00 Build 0)  -->
<svg version="1.1" xmlns="http://www.w3.org/2000/svg" xmlns:xlink="http://www.w3.org/1999/xlink" x="0px" y="0px"
	 viewBox="0 0 500 500" style="enable-background:new 0 0 500 500;" xml:space="preserve">
<g id="Background_complete">
	<g>
		<g>
			<g>
				<g>
				<!-- retangulos no fundo -->
					<path style="fill:#ffffff;" d="M444.708,349.145H263.962c-3.232,0-5.862-2.63-5.862-5.862V80.009
						c0-3.232,2.63-5.862,5.862-5.862h180.746c3.232,0,5.862,2.629,5.862,5.862v263.273
						C450.57,346.515,447.94,349.145,444.708,349.145z M263.962,74.397c-3.095,0-5.612,2.518-5.612,5.612v263.273
						c0,3.095,2.518,5.612,5.612,5.612h180.746c3.095,0,5.612-2.518,5.612-5.612V80.009c0-3.094-2.518-5.612-5.612-5.612H263.962z"
						/>
				</g>
			</g>
			<g>
				<g>
				<!-- retangulos no fundo -->
					<path style="fill:#ffffff;" d="M236.28,349.145H55.534c-3.232,0-5.862-2.63-5.862-5.862V80.009
						c0-3.232,2.629-5.862,5.862-5.862H236.28c3.232,0,5.862,2.629,5.862,5.862v263.273
						C242.143,346.515,239.513,349.145,236.28,349.145z M55.534,74.397c-3.094,0-5.612,2.518-5.612,5.612v263.273
						c0,3.095,2.518,5.612,5.612,5.612H236.28c3.095,0,5.612-2.518,6.345-6.168V79.454c-0.732-2.539-3.25-5.056-6.345-5.056H55.534z
						"/>
				</g>
			</g>
		</g>
		<g>
			<g>
				<rect x="0" y="410.214" style="fill:#F0F0F0;" width="500" height="0.25"/>
			</g>
		</g>
	</g>
	<g>
		<g>
			<path style="fill:#F0F0F0;" d="M325.255,140.558c1.64,0,3.051,0.598,3.051,2.415c0,2.313-2.237,5.339-7.283,5.339
				c-2.631,0-5.237-0.801-5.237-2.389c0-1.271,1.614-2.428,3.267-3.178h-0.089c-0.915,0-2.606-0.242-2.606-1.983
				c0-1.119,0.776-2.174,3.254-3.292c-1.462-0.572-2.415-1.767-2.415-3.711c0-2.86,2.072-4.106,4.805-4.106
				c0.661,0,1.284,0.076,1.843,0.229c0.178-0.979,0.521-1.792,0.915-2.313c0.42-0.521,1.017-0.864,1.78-0.864
				c0.902,0,1.373,0.598,1.373,1.36c0,0.699-0.521,1.245-1.246,1.245c-0.94,0-1.22-0.623-1.385-1.64
				c-0.254,0.229-0.483,0.648-0.699,1.271c-0.089,0.292-0.203,0.648-0.267,1.08c1.513,0.559,2.504,1.767,2.504,3.737
				c0,2.86-2.084,4.118-4.817,4.118c-0.699,0-1.347-0.076-1.919-0.242c-1.169,0.623-2.186,1.258-2.186,2.059
				c0,0.572,0.356,0.864,1.246,0.864H325.255z M326.514,144.193c0-0.953-0.394-1.449-1.983-1.449h-4.843
				c-1.144,0.585-1.767,1.665-1.767,2.631c0,1.767,2.059,2.491,3.801,2.491C323.908,147.867,326.514,146.697,326.514,144.193z
				 M319.637,133.758c0,2.783,0.915,3.648,2.364,3.648c1.462,0,2.377-0.864,2.377-3.648c0-2.784-0.915-3.648-2.377-3.648
				C320.553,130.11,319.637,130.974,319.637,133.758z"/>
		</g>
	</g>
	<g>
		<g>
			<path style="fill:#F0F0F0;" d="M122.982,221.218c1.536,0,2.859,0.56,2.859,2.263c0,2.168-2.096,5.003-6.825,5.003
				c-2.465,0-4.907-0.751-4.907-2.239c0-1.191,1.513-2.275,3.061-2.978h-0.083c-0.858,0-2.442-0.226-2.442-1.858
				c0-1.048,0.727-2.037,3.049-3.085c-1.37-0.536-2.263-1.656-2.263-3.478c0-2.68,1.941-3.847,4.502-3.847
				c0.619,0,1.203,0.071,1.727,0.215c0.167-0.917,0.488-1.68,0.857-2.168c0.393-0.488,0.953-0.81,1.668-0.81
				c0.846,0,1.286,0.56,1.286,1.274c0,0.655-0.488,1.167-1.167,1.167c-0.881,0-1.143-0.583-1.298-1.537
				c-0.238,0.214-0.452,0.608-0.655,1.191c-0.083,0.274-0.19,0.607-0.25,1.012c1.417,0.524,2.346,1.656,2.346,3.502
				c0,2.68-1.953,3.859-4.514,3.859c-0.655,0-1.262-0.072-1.798-0.226c-1.096,0.584-2.049,1.179-2.049,1.929
				c0,0.536,0.334,0.81,1.168,0.81H122.982z M124.161,224.624c0-0.893-0.369-1.358-1.858-1.358h-4.538
				c-1.072,0.548-1.656,1.56-1.656,2.465c0,1.656,1.929,2.335,3.561,2.335C121.719,228.067,124.161,226.971,124.161,224.624z
				 M117.717,214.846c0,2.608,0.858,3.418,2.215,3.418c1.37,0,2.227-0.81,2.227-3.418c0-2.609-0.858-3.419-2.227-3.419
				C118.575,211.427,117.717,212.237,117.717,214.846z"/>
		</g>
	</g>
	<g>
		<g>
			<path style="fill:#F0F0F0;" d="M423.227,225.247c0,1.271,0.382,1.861,1.612,1.861v0.444c-0.445-0.041-0.889-0.062-1.313-0.062
				c-0.827,0-1.592,0.082-2.202,0.3v-2.501c-0.723,1.84-2.118,2.543-3.473,2.543c-0.992,0-1.716-0.3-2.202-0.806
				c-0.527-0.568-0.703-1.436-0.703-2.77v-5.312c0-1.271-0.372-1.871-1.602-1.871v-0.444c0.444,0.041,0.889,0.062,1.313,0.062
				c0.827,0,1.581-0.083,2.202-0.29v8.32c0,1.313,0.083,2.429,1.602,2.429c1.653,0,2.862-1.674,2.862-3.835v-4.372
				c0-1.271-0.382-1.871-1.612-1.871v-0.444c0.445,0.041,0.889,0.062,1.313,0.062c0.827,0,1.592-0.083,2.202-0.29V225.247z"/>
		</g>
	</g>
	<g>
		<g>
			<path style="fill:#F0F0F0;" d="M402.595,206.625c0,7.063-4.276,11.735-11.735,11.735c-0.982,0-3.151-0.095-4.545-0.095
				c-1.52,0-3.119,0.032-4.022,0.095v-0.649c2.201-0.095,2.629-0.428,2.629-2.787v-16.089c0-2.36-0.428-2.692-2.629-2.787v-0.649
				c0.744,0.048,1.964,0.111,3.167,0.111c0.27,0,0.523-0.016,0.792-0.016c1.489-0.031,3.658-0.095,4.893-0.095
				C398.874,195.397,402.595,199.388,402.595,206.625z M387.931,198.77v16.216c0,2.265,0.428,2.787,2.439,2.787
				c7.063,0,8.979-3.959,8.979-11.022c0-7.269-2.296-10.768-9.011-10.768C388.359,195.983,387.931,196.537,387.931,198.77z"/>
		</g>
	</g>
	<g>
		<g>
			<path style="fill:#F0F0F0;" d="M351.867,107.675c-1.747,0.075-2.086,0.339-2.086,2.212v12.768c0,1.873,0.339,2.136,2.086,2.136
				h1.885c3.217,0,3.858-1.231,4.223-4.813h0.591c-0.051,0.54-0.075,1.282-0.075,2.111c0,0.641,0.05,1.985,0.176,3.292
				c-1.747-0.075-4.173-0.075-5.894-0.075c-1.546,0-4.939,0-7.465,0.075v-0.515c1.747-0.076,2.087-0.339,2.087-2.212v-12.768
				c0-1.873-0.34-2.137-2.087-2.212v-0.516c0.717,0.051,1.961,0.076,3.293,0.076c1.181,0,2.475-0.025,3.267-0.076V107.675z"/>
		</g>
	</g>
	<g>
		<g>
			<path style="fill:#F0F0F0;" d="M372.737,209.287v0.477c-0.628,0.139-1.337,0.639-1.883,2.069l-5.592,14.427h-0.198
				c-0.069,0-0.116,0-0.186,0l-5.813-14.973c-0.476-1.209-1.139-1.5-1.639-1.523v-0.477c0.639,0.047,1.639,0.07,2.546,0.07
				c1.232,0,2.383-0.023,3.046-0.07v0.477c-1.139,0.046-1.685,0.221-1.685,0.883c0,0.279,0.092,0.64,0.278,1.116l4.313,11.439
				l3.882-10.055c0.314-0.814,0.476-1.453,0.476-1.942c0-1.046-0.721-1.406-2.081-1.441v-0.477c0.906,0.047,1.907,0.07,2.744,0.07
				C371.761,209.357,372.261,209.334,372.737,209.287z"/>
		</g>
	</g>
	<g>
		<g>
			<path style="fill:#F0F0F0;" d="M306.227,97.67c1.309,1.328,1.65,2.858,1.65,5.776v11.452c0,1.328,0.322,1.952,1.268,1.952
				c0.745,0,1.288-0.382,1.851-0.866l0.463,0.704c-1.147,0.866-2.013,1.51-3.763,1.51c-2.878,0-3.543-1.731-3.543-3.663
				c-1.771,2.918-4.367,3.663-6.34,3.663c-2.757,0-5.233-1.389-5.233-4.609c0-3.26,2.516-4.709,6.642-6.44
				c2.757-1.147,4.931-1.851,4.931-3.502v-2.556c0-3.461-1.69-4.146-3.823-4.146c-1.409,0-3.14,0.282-4.086,1.469
				c1.026,0.262,1.932,1.167,1.932,2.515c0,1.409-0.946,2.234-2.415,2.234c-1.409,0-2.234-1.066-2.234-2.555
				c0-1.208,0.785-2.154,1.932-2.939c1.167-0.765,3.139-1.55,5.776-1.55C303.55,96.12,305.281,96.724,306.227,97.67z
				 M304.154,105.338c-0.443,0.664-1.348,1.087-3.944,2.355c-1.811,0.865-4.005,2.053-4.005,5.232c0,2.475,1.409,3.623,3.3,3.623
				c1.651,0,3.261-0.865,4.649-3.119V105.338z"/>
		</g>
	</g>
	<g>
		<g>
			<path style="fill:#F0F0F0;" d="M86.81,203.116c1.309,1.328,1.65,2.858,1.65,5.776v11.452c0,1.328,0.322,1.952,1.268,1.952
				c0.745,0,1.288-0.382,1.851-0.866l0.463,0.704c-1.147,0.866-2.013,1.51-3.763,1.51c-2.878,0-3.542-1.731-3.542-3.663
				c-1.771,2.918-4.367,3.663-6.34,3.663c-2.757,0-5.233-1.389-5.233-4.609c0-3.26,2.516-4.709,6.642-6.44
				c2.757-1.147,4.931-1.851,4.931-3.502v-2.556c0-3.461-1.69-4.146-3.824-4.146c-1.409,0-3.14,0.282-4.086,1.469
				c1.026,0.262,1.932,1.167,1.932,2.516c0,1.409-0.946,2.234-2.415,2.234c-1.409,0-2.234-1.066-2.234-2.555
				c0-1.208,0.785-2.154,1.932-2.939c1.167-0.765,3.14-1.55,5.776-1.55C84.133,201.566,85.864,202.169,86.81,203.116z
				 M84.737,210.784c-0.443,0.664-1.348,1.087-3.944,2.355c-1.811,0.865-4.005,2.053-4.005,5.232c0,2.475,1.409,3.623,3.3,3.623
				c1.65,0,3.261-0.865,4.649-3.12V210.784z"/>
		</g>
	</g>
	<g>
		<g>
			<path style="fill:#F0F0F0;" d="M133.393,256.334c4.984,0.661,6.431,3.123,6.431,5.677c0,3.584-2.847,6.107-7.569,6.107
				c-0.938,0-2.831-0.092-5.414-0.092c-1.478,0-3.031,0.031-3.907,0.092v-0.63c2.137-0.092,2.553-0.416,2.553-2.708v-15.63
				c0-2.291-0.416-2.615-2.553-2.707v-0.631c0.876,0.062,2.461,0.092,3.846,0.092c1.984,0,4-0.061,4.753-0.061
				c4.415,0,6.646,2.046,6.646,4.953c0,2.23-1.263,4.4-4.785,5.477V256.334z M128.409,249.15v7.123h2.123
				c3.709,0,4.632-2.4,4.632-5.139c0-3.092-1.263-4.692-4.415-4.692C128.825,246.443,128.409,246.981,128.409,249.15z
				 M136.67,261.872c0-3.199-1.615-5.061-5.615-5.061h-2.646v7.969c0,2.2,0.416,2.616,2.37,2.616
				C134.902,267.396,136.67,265.411,136.67,261.872z"/>
		</g>
	</g>
	<g>
		<path style="fill:#F0F0F0;" d="M79.82,259.2c0.481,0.306,0.744,0.423,1.021,0.423c0.38,0,0.54-0.452,0.657-1.313h0.685
			c-0.087,1.05-0.146,2.335-0.146,6.099h-0.685c-0.219-2.845-1.59-5.749-4.903-5.749c-2.13,0-3.648,1.415-3.648,3.473
			c0,2.714,2.335,3.794,5.019,5.472c3.108,1.941,5.384,3.516,5.384,6.726c0,3.794-2.875,5.676-6.347,5.676
			c-2.116,0-3.225-0.569-4.086-1.109c-0.481-0.307-0.773-0.423-1.021-0.423c-0.38,0-0.54,0.452-0.656,1.313h-0.686
			c0.087-1.225,0.117-2.947,0.117-7.164h0.686c0.248,3.618,1.619,6.784,5.442,6.784c1.941,0,3.881-1.167,3.881-3.983
			c0-2.422-1.882-3.794-4.654-5.457c-2.846-1.707-5.325-3.327-5.325-6.697c0-3.531,2.67-5.18,5.617-5.18
			C78.142,258.091,79.017,258.66,79.82,259.2z"/>
	</g>
	<g>
		<path style="fill:#F0F0F0;" d="M106.586,250.097c-0.657,1.999-2.627,4.012-5.589,4.012c-4.333,0-6.872-3.166-6.872-7.747
			c0-5.253,2.656-8.477,6.756-8.477c3.502,0,5.588,2.057,5.588,6.566h-9.338c-0.073,0.569-0.102,1.255-0.102,1.912
			c0,4.1,2.276,6.493,4.567,6.493c1.795,0,3.356-0.759,4.392-2.991L106.586,250.097z M97.087,243.881h6.507
			c0.103-2.918-0.831-5.428-2.83-5.428C98.984,238.454,97.408,240.117,97.087,243.881z"/>
	</g>
	<g>
		<g>
			<rect x="326.561" y="167.422" style="fill:#E6E6E6;" width="96.512" height="6.541"/>
			<polygon style="fill:#E0E0E0;" points="336.548,173.963 340.23,182.006 343.912,182.006 343.912,173.963 			"/>
			<polygon style="fill:#E0E0E0;" points="413.086,173.963 409.404,182.006 405.722,182.006 405.722,173.963 			"/>
		</g>
		<g>
			<rect x="375.372" y="133.669" style="fill:#F0F0F0;" width="6.849" height="33.754"/>
			<rect x="375.372" y="159.807" style="fill:#E6E6E6;" width="6.849" height="1.309"/>
			<rect x="375.372" y="156.408" style="fill:#E6E6E6;" width="6.849" height="1.309"/>
			<rect x="382.221" y="133.669" style="fill:#F5F5F5;" width="20.447" height="33.754"/>
		</g>
		<g>
			<rect x="389.876" y="133.669" style="fill:#F0F0F0;" width="6.849" height="33.754"/>
			<rect x="389.876" y="159.807" style="fill:#E6E6E6;" width="6.849" height="1.309"/>
			<rect x="396.726" y="133.669" style="fill:#F5F5F5;" width="20.447" height="33.754"/>
			<rect x="401.896" y="140.82" style="fill:#E6E6E6;" width="11.575" height="2.745"/>
		</g>
		<g>
			<rect x="341.398" y="160.924" style="fill:#F5F5F5;" width="33.973" height="6.498"/>
			<rect x="333.089" y="160.924" style="fill:#F0F0F0;" width="33.973" height="6.498"/>
		</g>
	</g>
	<g>
		<g>
			<g>
				<path style="fill:#E0E0E0;" d="M103.953,383.066l-1.378,3.777l-0.277,0.766l-0.153,0.416l-0.234,0.642l-0.89,2.421l-0.058,0.16
					l-0.146,0.408l-0.459,1.254l-0.518,1.422l-0.175,0.481l-0.022,0.051l-0.248,0.671l-1.211,3.311l-0.262,0.729l-2.436,6.673
					l-0.19,0.503l-0.481,1.32c-0.175,0.474-0.474,0.882-0.853,1.196c-0.153,0.117-0.314,0.226-0.489,0.314
					c-0.328,0.168-0.686,0.27-1.065,0.292c-0.058,0-0.117,0.007-0.175,0.007h-15.73c-0.255,0-0.503-0.036-0.744-0.102
					c-0.19-0.058-0.379-0.131-0.554-0.226c-0.583-0.314-1.05-0.831-1.283-1.48l-1.976-5.404l-0.248-0.671l-1.393-3.821l-0.153-0.416
					l-0.073-0.204l-0.241-0.656l-1.371-3.756l-0.088-0.233l-0.073-0.19l-0.591-1.633l-0.27-0.737l-0.219-0.598l-0.204-0.547
					l-0.153-0.423l-0.044-0.117l-0.649-1.779l-0.015-0.044l-0.16-0.438l-1.218-3.34H103.953z"/>
			</g>
		</g>
		<g>
			<g>
				<g>
					<g>
						<path style="fill:#E0E0E0;" d="M72.073,366.603c0,0,5.519-2.013,6.948,3.831c1.428,5.844,5.517,4.335,6.292,3.055
							c1.526-2.523,1.739-11.653-0.884-12.204C81.294,360.628,73.176,363.941,72.073,366.603z"/>
					</g>
				</g>
				<g>
					<g>
						<path style="fill:#F0F0F0;" d="M75.363,359.383c0,0-5.577-1.799-7.654,4.045c-2.078,5.844,0,20.205,0,20.205
							s4.805-1.505,6.363-6.44c1.558-4.935,1.396-15.778,10.356-15.908L75.363,359.383z"/>
					</g>
				</g>
				<g>
					<g>
						<path style="fill:#E0E0E0;" d="M76.5,359.731c-4.847,2.823-5.626,8.806-6.116,13.868c-0.025,0.263,0.386,0.261,0.411,0
							c0.476-4.908,1.204-10.771,5.913-13.513C76.936,359.953,76.729,359.598,76.5,359.731L76.5,359.731z"/>
					</g>
				</g>
			</g>
			<g>
				<g>
					<g>
						<path style="fill:#E0E0E0;" d="M94.772,328.335c0,0-5.433-2.235-7.097,3.546c-1.664,5.781-5.576,5.316-6.275,2.891
							c-0.817-2.833-1.4-11.807,1.243-12.251C85.801,321.991,93.777,325.63,94.772,328.335z"/>
					</g>
				</g>
				<g>
					<g>
						<path style="fill:#F0F0F0;" d="M91.777,320.987c0,0,5.645-1.572,7.484,4.352c1.839,5.923-0.818,20.188-0.818,20.188
							s-4.74-1.698-6.097-6.692c-1.357-4.994-0.756-15.822-9.704-16.314L91.777,320.987z"/>
					</g>
				</g>
				<g>
					<g>
						<path style="fill:#E0E0E0;" d="M90.17,321.54c5.148,4.009,6.003,10.854,6.638,16.901c0.027,0.26,0.439,0.263,0.411,0
							c-0.646-6.149-1.525-13.116-6.758-17.192C90.254,321.089,89.961,321.378,90.17,321.54L90.17,321.54z"/>
					</g>
				</g>
			</g>
			<g>
				<g>
					<g>
						<path style="fill:#E0E0E0;" d="M100.548,355.149c0,0-3.392-1.022-6.947,3.831c-3.425,4.676-4.791,5.224-7.113,3.406
							c-2.322-1.818-0.918-12.004,1.705-12.555C91.327,349.174,99.444,352.487,100.548,355.149z"/>
					</g>
				</g>
				<g>
					<g>
						<path style="fill:#F0F0F0;" d="M100.531,347.08c0,0,7.959-2.567,10.925,5.773c2.966,8.34,0,28.837,0,28.837
							s-6.858-2.148-9.082-9.191c-2.224-7.043-1.648-22.396-14.437-22.582C90.504,349.136,95.502,348.11,100.531,347.08z"/>
					</g>
				</g>
				<g>
					<g>
						<path style="fill:#E0E0E0;" d="M98.333,347.968c6.423,3.328,10.63,10.291,10.579,17.526c-0.002,0.264,0.409,0.265,0.411,0
							c0.052-7.372-4.235-14.489-10.782-17.881C98.306,347.491,98.098,347.846,98.333,347.968L98.333,347.968z"/>
					</g>
				</g>
			</g>
			<g>
				<g>
					<g>
						<path style="fill:#E0E0E0;" d="M68.197,341.604c0,0,5.519-2.013,6.947,3.831c1.429,5.844,8.615,8.074,9.353,5.219
							c0.787-3.048-0.952-13.902-3.576-14.452C77.788,335.544,69.301,338.942,68.197,341.604z"/>
					</g>
				</g>
				<g>
					<g>
						<path style="fill:#F0F0F0;" d="M68.215,333.535c0,0-7.959-2.567-10.925,5.773c-2.965,8.34,0,28.837,0,28.837
							s6.858-2.148,9.082-9.191c2.224-7.043,1.992-22.519,14.781-22.705L68.215,333.535z"/>
					</g>
				</g>
				<g>
					<g>
						<path style="fill:#E0E0E0;" d="M71.409,334.247c-3.444,0.171-6.392,2.331-8.315,5.09c-2.346,3.365-3.151,7.524-3.924,11.473
							c-0.05,0.258,0.346,0.369,0.396,0.109c0.729-3.727,1.477-7.605,3.541-10.861c1.823-2.876,4.799-5.226,8.302-5.4
							C71.672,334.645,71.674,334.234,71.409,334.247L71.409,334.247z"/>
					</g>
				</g>
			</g>
			<g>
				<g>
					<path style="fill:#F0F0F0;" d="M83.976,383.067h1.402c3.525-14.921,1.151-30.904-1.51-41.807
						c-2.955-12.105-6.896-20.743-6.935-20.829c-0.158-0.342-0.563-0.492-0.904-0.335c-0.342,0.157-0.492,0.562-0.335,0.904
						c0.039,0.085,3.933,8.626,6.856,20.611C85.189,352.437,87.545,368.33,83.976,383.067z"/>
				</g>
			</g>
		</g>
	</g>
</g>
<g id="Background_simple" style="display:none;">
	<g style="display:inline;">
		<path style="fill:#008f39;" d="M161.318,361.514c-39.04-11.243-93.22-59.298-96.413-101.093
			c-2.186-28.614,4.096-50.07,29.056-69.462c64.045-49.758,128.73,41.866,199.413-22.651
			c81.997-74.843,164.654-21.245,140.794,65.443C409.868,322.041,295.401,400.129,161.318,361.514z"/>
		<path style="opacity:0.9;fill:#FFFFFF;" d="M161.318,361.514c-39.04-11.243-93.22-59.298-96.413-101.093
			c-2.186-28.614,4.096-50.07,29.056-69.462c64.045-49.758,128.73,41.866,199.413-22.651
			c81.997-74.843,164.654-21.245,140.794,65.443C409.868,322.041,295.401,400.129,161.318,361.514z"/>
	</g>
</g>
<g id="Shadow">
	<ellipse style="fill:#F5F5F5;" cx="250.121" cy="438.791" rx="200.449" ry="10.013"/>
</g>
<g id="Typewriter">
	<g>
		<g>
			<g>
				<path style="fill:#111111;" d="M346.806,314.605H156.038v-38.967c0-2.399,1.945-4.344,4.344-4.344h182.079
					c2.399,0,4.344,1.945,4.344,4.344V314.605z"/>
			</g>
			<g style="opacity:0.2;">
				<path d="M346.806,314.605H156.038v-38.978c0-2.393,1.94-4.333,4.333-4.333h182.102c2.393,0,4.333,1.94,4.333,4.333V314.605z"/>
			</g>
			<g>
				<rect x="160.336" y="202.63" style="fill:#111111;" width="182.172" height="111.975"/>
			</g>
			<g style="opacity:0.9;">
				<rect x="160.336" y="202.63" style="fill:#FFFFFF;" width="182.172" height="111.975"/>
			</g>
			<g>
				<g style="opacity:0.2;">
					<path d="M321.545,237.08h-141.65c-0.277,0-0.501-0.224-0.501-0.501s0.224-0.501,0.501-0.501h141.65
						c0.277,0,0.501,0.224,0.501,0.501S321.822,237.08,321.545,237.08z"/>
				</g>
				<g style="opacity:0.2;">
					<path d="M321.545,244.662h-141.65c-0.277,0-0.501-0.224-0.501-0.501s0.224-0.501,0.501-0.501h141.65
						c0.277,0,0.501,0.224,0.501,0.501S321.822,244.662,321.545,244.662z"/>
				</g>
				<g style="opacity:0.2;">
					<path d="M321.545,252.244h-141.65c-0.277,0-0.501-0.224-0.501-0.501c0-0.277,0.224-0.501,0.501-0.501h141.65
						c0.277,0,0.501,0.224,0.501,0.501C322.046,252.02,321.822,252.244,321.545,252.244z"/>
				</g>
				<g style="opacity:0.2;">
					<path d="M321.545,259.826h-141.65c-0.277,0-0.501-0.224-0.501-0.501c0-0.277,0.224-0.501,0.501-0.501h141.65
						c0.277,0,0.501,0.224,0.501,0.501C322.046,259.602,321.822,259.826,321.545,259.826z"/>
				</g>
				<g style="opacity:0.2;">
					<path d="M321.545,267.408h-141.65c-0.277,0-0.501-0.224-0.501-0.501c0-0.277,0.224-0.501,0.501-0.501h141.65
						c0.277,0,0.501,0.224,0.501,0.501C322.046,267.184,321.822,267.408,321.545,267.408z"/>
				</g>
				<g style="opacity:0.2;">
					<path d="M225.799,274.991h-45.904c-0.277,0-0.501-0.224-0.501-0.501s0.224-0.501,0.501-0.501h45.904
						c0.277,0,0.501,0.224,0.501,0.501S226.076,274.991,225.799,274.991z"/>
				</g>
				<g style="opacity:0.2;">
					<path d="M321.545,297.737h-141.65c-0.277,0-0.501-0.224-0.501-0.501c0-0.277,0.224-0.501,0.501-0.501h141.65
						c0.277,0,0.501,0.224,0.501,0.501C322.046,297.512,321.822,297.737,321.545,297.737z"/>
				</g>
			</g>
			<g style="opacity:0.2;">
				<path d="M287.469,224.599h-73.497c-0.277,0-0.501-0.224-0.501-0.501c0-0.277,0.224-0.501,0.501-0.501h73.497
					c0.277,0,0.501,0.224,0.501,0.501C287.97,224.375,287.746,224.599,287.469,224.599z"/>
			</g>
		</g>
		<g>
			<path style="fill:#111111;" d="M380.85,437.061H121.805c-3.273,0-5.773-2.926-5.257-6.15l0.536-3.402l0.109-0.655l15.999-101.15
				c0.059-0.377,0.129-0.744,0.218-1.101c0.059-0.218,0.119-0.436,0.178-0.655c1.656-5.485,6.725-9.343,12.587-9.343H356.48
				c5.862,0,10.93,3.858,12.587,9.343c0.06,0.218,0.119,0.436,0.178,0.655c0.089,0.357,0.159,0.724,0.218,1.101l15.999,101.15
				l0.109,0.655l0.536,3.402C386.622,434.135,384.123,437.061,380.85,437.061z"/>
		</g>
		<g>
			<polygon style="fill:#111111;" points="385.571,427.509 117.084,427.509 117.193,426.854 385.462,426.854 			"/>
		</g>
		<g style="opacity:0.3;">
			<path d="M144.79,360.182l-8.618,51.963c-0.294,1.771,1.072,3.382,2.867,3.382h224.577c1.795,0,3.161-1.611,2.867-3.382
				l-8.618-51.963c-0.233-1.402-1.446-2.431-2.867-2.431h-207.34C146.236,357.751,145.023,358.78,144.79,360.182z"/>
		</g>
		<!-- botão da máquina de escrever -->
		<g>
			<g> 
				<path style="fill:#FFFFFF;" d="M161.791,368.208c0,2.603-2.11,4.712-4.713,4.712c-2.603,0-4.713-2.11-4.713-4.712
					c0-2.603,2.11-4.713,4.713-4.713C159.682,363.496,161.791,365.606,161.791,368.208z"/>
			</g>
			<g>
				<path style="fill:#FFFFFF;" d="M176.386,368.208c0,2.603-2.11,4.712-4.713,4.712c-2.603,0-4.713-2.11-4.713-4.712
					c0-2.603,2.11-4.713,4.713-4.713C174.276,363.496,176.386,365.606,176.386,368.208z"/>
			</g>
			<g>
				<path style="fill:#FFFFFF;" d="M190.98,368.208c0,2.603-2.11,4.712-4.712,4.712c-2.603,0-4.713-2.11-4.713-4.712
					c0-2.603,2.11-4.713,4.713-4.713C188.87,363.496,190.98,365.606,190.98,368.208z"/>
			</g>
			<g>
				<path style="fill:#FFFFFF;" d="M205.575,368.208c0,2.603-2.11,4.712-4.713,4.712c-2.603,0-4.713-2.11-4.713-4.712
					c0-2.603,2.11-4.713,4.713-4.713C203.465,363.496,205.575,365.606,205.575,368.208z"/>
			</g>
			<g>
				<path style="fill:#FFFFFF;" d="M220.169,368.208c0,2.603-2.11,4.712-4.713,4.712c-2.603,0-4.713-2.11-4.713-4.712
					c0-2.603,2.11-4.713,4.713-4.713C218.059,363.496,220.169,365.606,220.169,368.208z"/>
			</g>
			<g>
				<path style="fill:#FFFFFF;" d="M234.763,368.208c0,2.603-2.11,4.712-4.713,4.712c-2.603,0-4.713-2.11-4.713-4.712
					c0-2.603,2.11-4.713,4.713-4.713C232.653,363.496,234.763,365.606,234.763,368.208z"/>
			</g>
			<g>
				<path style="fill:#FFFFFF;" d="M249.358,368.208c0,2.603-2.11,4.712-4.713,4.712c-2.603,0-4.713-2.11-4.713-4.712
					c0-2.603,2.11-4.713,4.713-4.713C247.248,363.496,249.358,365.606,249.358,368.208z"/>
			</g>
			<g>
				<path style="fill:#FFFFFF;" d="M263.952,368.208c0,2.603-2.11,4.712-4.713,4.712c-2.603,0-4.713-2.11-4.713-4.712
					c0-2.603,2.11-4.713,4.713-4.713C261.842,363.496,263.952,365.606,263.952,368.208z"/>
			</g>
			<g>
				<path style="fill:#FFFFFF;" d="M278.546,368.208c0,2.603-2.11,4.712-4.713,4.712s-4.713-2.11-4.713-4.712
					c0-2.603,2.11-4.713,4.713-4.713S278.546,365.606,278.546,368.208z"/>
			</g>
			<g>
				<path style="fill:#FFFFFF;" d="M293.141,368.208c0,2.603-2.11,4.712-4.713,4.712c-2.603,0-4.713-2.11-4.713-4.712
					c0-2.603,2.11-4.713,4.713-4.713C291.031,363.496,293.141,365.606,293.141,368.208z"/>
			</g>
			<g>
				<path style="fill:#FFFFFF;" d="M307.735,368.208c0,2.603-2.11,4.712-4.712,4.712c-2.603,0-4.713-2.11-4.713-4.712
					c0-2.603,2.11-4.713,4.713-4.713C305.625,363.496,307.735,365.606,307.735,368.208z"/>
			</g>
			<g>
				<path style="fill:#FFFFFF;" d="M322.33,368.208c0,2.603-2.11,4.712-4.713,4.712c-2.603,0-4.713-2.11-4.713-4.712
					c0-2.603,2.11-4.713,4.713-4.713C320.22,363.496,322.33,365.606,322.33,368.208z"/>
			</g>
			<g>
				<path style="fill:#FFFFFF;" d="M336.924,368.208c0,2.603-2.11,4.712-4.713,4.712s-4.713-2.11-4.713-4.712
					c0-2.603,2.11-4.713,4.713-4.713S336.924,365.606,336.924,368.208z"/>
			</g>
			<g>
				<path style="fill:#FFFFFF;" d="M351.518,368.208c0,2.603-2.11,4.712-4.713,4.712s-4.713-2.11-4.713-4.712
					c0-2.603,2.11-4.713,4.713-4.713S351.518,365.606,351.518,368.208z"/>
			</g>
		</g>
		<g>
			<g>
				<circle style="fill:#FFFFFF;" cx="157.079" cy="384.036" r="4.713"/>
			</g>
			<g>
				<circle style="fill:#FFFFFF;" cx="171.673" cy="384.036" r="4.713"/>
			</g>
			<g>
				<path style="fill:#FFFFFF;" d="M190.98,384.036c0,2.603-2.11,4.713-4.712,4.713c-2.603,0-4.713-2.11-4.713-4.713
					s2.11-4.713,4.713-4.713C188.87,379.323,190.98,381.433,190.98,384.036z"/>
			</g>
			<g>
				<path style="fill:#FFFFFF;" d="M205.575,384.036c0,2.603-2.11,4.713-4.713,4.713c-2.603,0-4.713-2.11-4.713-4.713
					s2.11-4.713,4.713-4.713C203.465,379.323,205.575,381.433,205.575,384.036z"/>
			</g>
			<g>
				<circle style="fill:#FFFFFF;" cx="215.456" cy="384.036" r="4.713"/>
			</g>
			<g>
				<circle style="fill:#FFFFFF;" cx="230.051" cy="384.036" r="4.713"/>
			</g>
			<g>
				<path style="fill:#FFFFFF;" d="M249.358,384.036c0,2.603-2.11,4.713-4.713,4.713c-2.603,0-4.713-2.11-4.713-4.713
					s2.11-4.713,4.713-4.713C247.248,379.323,249.358,381.433,249.358,384.036z"/>
			</g>
			<g>
				<path style="fill:#FFFFFF;" d="M263.952,384.036c0,2.603-2.11,4.713-4.713,4.713c-2.603,0-4.713-2.11-4.713-4.713
					s2.11-4.713,4.713-4.713C261.842,379.323,263.952,381.433,263.952,384.036z"/>
			</g>
			<g>
				<circle style="fill:#FFFFFF;" cx="273.834" cy="384.036" r="4.713"/>
			</g>
			<g>
				<circle style="fill:#FFFFFF;" cx="288.428" cy="384.036" r="4.713"/>
			</g>
			<g>
				<path style="fill:#FFFFFF;" d="M307.735,384.036c0,2.603-2.11,4.713-4.712,4.713c-2.603,0-4.713-2.11-4.713-4.713
					s2.11-4.713,4.713-4.713C305.625,379.323,307.735,381.433,307.735,384.036z"/>
			</g>
			<g>
				<path style="fill:#FFFFFF;" d="M322.33,384.036c0,2.603-2.11,4.713-4.713,4.713c-2.603,0-4.713-2.11-4.713-4.713
					s2.11-4.713,4.713-4.713C320.22,379.323,322.33,381.433,322.33,384.036z"/>
			</g>
			<g>
				<circle style="fill:#FFFFFF;" cx="332.211" cy="384.036" r="4.713"/>
			</g>
			<g>
				<circle style="fill:#FFFFFF;" cx="346.806" cy="384.036" r="4.713"/>
			</g>
		</g>
		<g>
			<g>
				<path style="fill:#FFFFFF;" d="M190.98,399.863c0,2.603-2.11,4.713-4.712,4.713c-2.603,0-4.713-2.11-4.713-4.713
					c0-2.603,2.11-4.713,4.713-4.713C188.87,395.15,190.98,397.26,190.98,399.863z"/>
			</g>
			<g>
				<path style="fill:#FFFFFF;" d="M322.33,399.863c0,2.603-2.11,4.713-4.713,4.713c-2.603,0-4.713-2.11-4.713-4.713
					c0-2.603,2.11-4.713,4.713-4.713C320.22,395.15,322.33,397.26,322.33,399.863z"/>
			</g>
		</g>
		<g>
			<path style="fill:#FFFFFF;" d="M302.658,404.576h-97.735c-2.242,0-4.06-1.818-4.06-4.06v-0.021c0-2.242,1.818-4.06,4.06-4.06
				h97.735c2.243,0,4.06,1.818,4.06,4.06v0.021C306.718,402.758,304.9,404.576,302.658,404.576z"/>
		</g>
		<g>
			<path style="fill:#111111;" d="M369.245,324.603H133.41c0.059-0.218,0.119-0.436,0.178-0.655h235.478
				C369.126,324.167,369.185,324.385,369.245,324.603z"/>
		</g>
		<g>
			<g>
				<polygon style="fill:#111111;" points="147.351,307.993 146.439,314.605 230.251,314.605 230.251,307.993 				"/>
			</g>
			<g>
				<polygon style="fill:#111111;" points="272.405,307.993 272.405,314.605 356.218,314.605 355.306,307.993 				"/>
			</g>
		</g>
		<g>
			<path style="fill:#111111;" d="M335.641,307.993h-1.003v-18.386c0-1.253-1.019-2.273-2.272-2.273H170.29
				c-1.254,0-2.273,1.02-2.273,2.273v18.386h-1.003v-18.386c0-1.806,1.47-3.276,3.276-3.276h162.076c1.805,0,3.275,1.47,3.275,3.276
				V307.993z"/>
		</g>
		<g>
			<rect x="175.668" y="284.209" style="fill:#111111;" width="31.037" height="5.249"/>
		</g>
		<g>
			<rect x="296.18" y="284.209" style="fill:#111111;" width="31.037" height="5.249"/>
		</g>
		<g>
			<g>
				<polygon style="fill:#111111;" points="255.938,302.538 255.938,314.605 244.098,314.605 244.098,302.538 248.563,302.538 
					248.563,305.662 251.473,305.662 251.473,302.538 				"/>
			</g>
			<g style="opacity:0.2;">
				<polygon points="255.938,302.538 255.938,314.605 244.098,314.605 244.098,302.538 248.563,302.538 248.563,305.662 
					251.473,305.662 251.473,302.538 				"/>
			</g>
		</g>
		<g>
			<g>
				<rect x="140.168" y="293.999" style="fill:#111111;" width="20.168" height="6.472"/>
			</g>
			<g style="opacity:0.5;">
				<rect x="140.168" y="293.999" style="fill:#FFFFFF;" width="20.168" height="6.472"/>
			</g>
			<g>
				<rect x="140.168" y="289.891" style="fill:#111111;" width="8.059" height="15.043"/>
			</g>
		</g>
		<g>
			<g>
				<path style="fill:#111111;" d="M375.042,337.666H125.57c-1.981,0-3.586-1.606-3.586-3.586v-0.018
					c0-1.981,1.606-3.586,3.586-3.586h249.472c1.981,0,3.586,1.606,3.586,3.586v0.018
					C378.628,336.06,377.022,337.666,375.042,337.666z"/>
			</g>
			<g style="opacity:0.3;">
				<path style="fill:#FFFFFF;" d="M375.042,337.666H125.57c-1.981,0-3.586-1.606-3.586-3.586v-0.018
					c0-1.981,1.606-3.586,3.586-3.586h249.472c1.981,0,3.586,1.606,3.586,3.586v0.018
					C378.628,336.06,377.022,337.666,375.042,337.666z"/>
			</g>
		</g>
		<g>
			<circle style="fill:#111111;" cx="147.207" cy="348.363" r="3.01"/>
		</g>
		<g>
			<circle style="fill:#111111;" cx="157.079" cy="348.363" r="3.01"/>
		</g>
	</g>
</g>
<g id="Books">
	<g>
		<path style="fill:#008B8B;" d="M398.702,437.061h-25.231c-1.259,0-2.279-1.02-2.279-2.279v-191.27c0-1.259,1.02-2.279,2.279-2.279
			h25.231c1.259,0,2.279,1.02,2.279,2.279v191.27C400.981,436.04,399.961,437.061,398.702,437.061z"/>
		<path style="opacity:0.4;fill:#FFFFFF;" d="M400.985,243.51v191.268c0,1.259-1.02,2.279-2.279,2.279h-25.231
			c-1.259,0-2.279-1.02-2.279-2.279V243.51c0-1.259,1.02-2.279,2.279-2.279h25.231C399.964,241.231,400.985,242.251,400.985,243.51z
			"/>
		<rect x="371.196" y="267.804" style="fill:#263238;" width="29.789" height="2.774"/>
		<rect x="371.196" y="412.19" style="fill:#263238;" width="29.789" height="11.095"/>
		<rect x="371.196" y="403.722" style="fill:#263238;" width="29.789" height="2.774"/>
	</g>
	<g>
		<path style="fill:#3CB371;" d="M437.625,435.727l-24.231,1.193c-1.524,0.075-2.82-1.099-2.895-2.623l-8.42-170.652l-0.137-2.686
			l-0.195-3.995l-0.127-2.686l-0.498-10.045c-0.076-1.524,1.099-2.821,2.622-2.896l24.231-1.201c1.524-0.076,2.82,1.099,2.896,2.623
			l0.498,10.055l0.127,2.686l0.195,3.985l0.137,2.686l8.42,170.661C440.323,434.356,439.149,435.652,437.625,435.727z"/>
		<path style="opacity:0.2;" d="M432.489,426.225l-13.418,0.732c-0.415,0.023-0.77-0.295-0.792-0.71l-2.765-50.67
			c-0.023-0.415,0.295-0.77,0.71-0.792l13.418-0.732c0.415-0.023,0.77,0.295,0.792,0.71l2.764,50.67
			C433.222,425.848,432.904,426.202,432.489,426.225z"/>
		<polygon style="fill:#263238;" points="431.496,255.5 401.747,256.965 401.62,254.279 431.369,252.814 		"/>
		<polygon style="fill:#263238;" points="431.828,262.171 402.079,263.646 401.942,260.96 431.692,259.485 		"/>
	</g>
</g>
<g id="Letters">
	<g>
		<g>
			<path style="fill:#263238;" d="M132.207,124.294c0,2.474,0.744,3.621,3.138,3.621v0.865c-0.865-0.08-1.73-0.12-2.555-0.12
				c-1.61,0-3.098,0.161-4.285,0.583v-4.868c-1.408,3.581-4.123,4.949-6.758,4.949c-1.931,0-3.34-0.583-4.285-1.569
				c-1.026-1.106-1.368-2.796-1.368-5.391v-10.34c0-2.474-0.724-3.641-3.118-3.641v-0.865c0.865,0.08,1.73,0.121,2.555,0.121
				c1.609,0,3.078-0.161,4.285-0.563v16.193c0,2.555,0.161,4.728,3.118,4.728c3.217,0,5.571-3.259,5.571-7.464v-8.509
				c0-2.474-0.744-3.641-3.138-3.641v-0.865c0.866,0.08,1.73,0.121,2.555,0.121c1.61,0,3.098-0.161,4.285-0.563V124.294z"/>
		</g>
	</g>
	<g>
		<g>
			<path style="fill:#263238;" d="M260.169,104.285v0.674c-0.886,0.197-1.888,0.902-2.659,2.922l-7.898,20.377h-0.279
				c-0.098,0-0.164,0-0.263,0l-8.21-21.148c-0.673-1.708-1.609-2.119-2.314-2.151v-0.674c0.902,0.066,2.314,0.099,3.596,0.099
				c1.74,0,3.365-0.033,4.302-0.099v0.674c-1.609,0.065-2.381,0.312-2.381,1.247c0,0.394,0.131,0.903,0.393,1.576l6.092,16.157
				l5.484-14.202c0.443-1.149,0.673-2.053,0.673-2.742c0-1.478-1.018-1.986-2.939-2.035v-0.674c1.28,0.066,2.693,0.099,3.875,0.099
				C258.791,104.384,259.497,104.351,260.169,104.285z"/>
		</g>
	</g>
	<g>
		<g>
			<path style="fill:#263238;" d="M169.369,101.577c1.309,1.328,1.65,2.858,1.65,5.776v11.452c0,1.328,0.322,1.952,1.268,1.952
				c0.745,0,1.288-0.382,1.851-0.866l0.463,0.704c-1.147,0.866-2.013,1.51-3.763,1.51c-2.878,0-3.543-1.731-3.543-3.663
				c-1.771,2.918-4.367,3.663-6.34,3.663c-2.757,0-5.233-1.389-5.233-4.609c0-3.26,2.516-4.709,6.642-6.44
				c2.757-1.147,4.931-1.851,4.931-3.502v-2.556c0-3.461-1.69-4.146-3.824-4.146c-1.409,0-3.14,0.282-4.086,1.469
				c1.027,0.262,1.932,1.167,1.932,2.516c0,1.409-0.946,2.234-2.415,2.234c-1.409,0-2.234-1.067-2.234-2.556
				c0-1.208,0.785-2.154,1.932-2.938c1.167-0.765,3.139-1.55,5.776-1.55C166.692,100.028,168.423,100.631,169.369,101.577z
				 M167.296,109.245c-0.442,0.664-1.348,1.087-3.944,2.355c-1.811,0.865-4.005,2.053-4.005,5.232c0,2.475,1.409,3.623,3.3,3.623
				c1.65,0,3.261-0.865,4.649-3.119V109.245z"/>
		</g>
	</g>
	<g>
		<g>
			<path style="fill:#263238;" d="M119.337,150.046c2.037,2.067,2.569,4.447,2.569,8.989v17.822c0,2.067,0.502,3.038,1.973,3.038
				c1.159,0,2.004-0.595,2.881-1.347l0.721,1.096c-1.785,1.347-3.132,2.35-5.857,2.35c-4.479,0-5.513-2.693-5.513-5.7
				c-2.756,4.541-6.797,5.7-9.866,5.7c-4.291,0-8.144-2.161-8.144-7.173c0-5.074,3.915-7.329,10.336-10.023
				c4.291-1.785,7.673-2.881,7.673-5.45v-3.978c0-5.386-2.631-6.452-5.95-6.452c-2.193,0-4.887,0.438-6.359,2.287
				c1.597,0.407,3.007,1.817,3.007,3.915c0,2.193-1.472,3.476-3.759,3.476c-2.192,0-3.476-1.66-3.476-3.977
				c0-1.88,1.221-3.352,3.007-4.573c1.817-1.19,4.886-2.412,8.989-2.412C115.172,147.635,117.865,148.574,119.337,150.046z
				 M116.111,161.979c-0.689,1.033-2.098,1.692-6.138,3.665c-2.819,1.346-6.233,3.195-6.233,8.143c0,3.852,2.193,5.638,5.136,5.638
				c2.569,0,5.075-1.346,7.235-4.855V161.979z"/>
		</g>
	</g>
	<g>
		<g>
			<path style="fill:#263238;" d="M275.234,142.484c4.984,0.661,6.431,3.123,6.431,5.677c0,3.584-2.847,6.107-7.569,6.107
				c-0.938,0-2.831-0.092-5.414-0.092c-1.478,0-3.031,0.031-3.907,0.092v-0.63c2.137-0.092,2.553-0.416,2.553-2.708v-15.63
				c0-2.292-0.415-2.615-2.553-2.707v-0.631c0.876,0.061,2.461,0.092,3.846,0.092c1.984,0,4-0.061,4.753-0.061
				c4.415,0,6.646,2.046,6.646,4.953c0,2.23-1.263,4.4-4.785,5.477V142.484z M270.25,135.299v7.123h2.123
				c3.709,0,4.632-2.4,4.632-5.139c0-3.092-1.263-4.692-4.415-4.692C270.666,132.592,270.25,133.131,270.25,135.299z
				 M278.512,148.022c0-3.199-1.615-5.061-5.615-5.061h-2.646v7.969c0,2.2,0.416,2.616,2.37,2.616
				C276.743,153.545,278.512,151.561,278.512,148.022z"/>
		</g>
	</g>
	<g>
		<g>
			<path style="fill:#263238;" d="M188.547,166.301c-2.059,0.089-2.459,0.4-2.459,2.607v15.049c0,2.207,0.4,2.518,2.459,2.607v0.607
				c-0.948-0.059-2.459-0.089-3.851-0.089c-1.585,0-3.036,0.029-3.881,0.089v-0.607c2.059-0.089,2.444-0.4,2.444-2.607v-16.234
				l-7.302,19.596h-0.489l-7.643-19.685v16.011c0,2.222,0.4,2.829,2.755,2.918v0.607c-0.726-0.059-2.059-0.089-3.096-0.089
				c-1.022,0-2.148,0.029-2.814,0.089v-0.607c2.059-0.089,2.459-0.696,2.459-2.918v-14.738c0-2.207-0.4-2.518-2.459-2.607v-0.607
				c0.667,0.059,1.792,0.089,2.814,0.089c0.889,0,1.926-0.03,2.592-0.089l6.665,17.596l6.517-17.507h1.437
				c1.392,0,2.903-0.03,3.851-0.089V166.301z"/>
		</g>
	</g>
	<g>
		<g>
			<path style="fill:#263238;" d="M299.887,177.687c0,8.292-5.02,13.776-13.776,13.776c-1.152,0-3.699-0.111-5.336-0.111
				c-1.785,0-3.662,0.037-4.722,0.111v-0.762c2.584-0.112,3.087-0.502,3.087-3.272V168.54c0-2.77-0.502-3.161-3.087-3.272v-0.762
				c0.874,0.056,2.306,0.13,3.718,0.13c0.316,0,0.614-0.019,0.93-0.019c1.748-0.037,4.295-0.111,5.745-0.111
				C295.518,164.506,299.887,169.191,299.887,177.687z M282.671,168.466v19.038c0,2.659,0.502,3.272,2.863,3.272
				c8.292,0,10.542-4.648,10.542-12.94c0-8.534-2.696-12.642-10.578-12.642C283.173,165.194,282.671,165.844,282.671,168.466z"/>
		</g>
	</g>
	<g>
		<g>
			<path style="fill:#263238;" d="M166.927,137.44c-1.277,0.055-1.524,0.248-1.524,1.617v9.332c0,1.369,0.248,1.561,1.524,1.561
				h1.378c2.351,0,2.82-0.9,3.086-3.517h0.432c-0.037,0.395-0.055,0.937-0.055,1.543c0,0.468,0.036,1.451,0.128,2.406
				c-1.277-0.055-3.05-0.055-4.308-0.055c-1.13,0-3.609,0-5.456,0.055v-0.376c1.277-0.055,1.525-0.248,1.525-1.616v-9.332
				c0-1.369-0.248-1.562-1.525-1.617v-0.377c0.524,0.037,1.433,0.056,2.407,0.056c0.863,0,1.809-0.019,2.388-0.056V137.44z"/>
		</g>
	</g>
	<g>
		<g>
			<path style="fill:#263238;" d="M260.074,168.757c-1.396,0.06-1.667,0.271-1.667,1.768v10.204c0,1.497,0.271,1.707,1.667,1.707
				h1.506c2.571,0,3.083-0.984,3.374-3.846h0.472c-0.041,0.432-0.06,1.024-0.06,1.687c0,0.512,0.04,1.587,0.14,2.631
				c-1.396-0.06-3.335-0.06-4.711-0.06c-1.235,0-3.947,0-5.966,0.06v-0.412c1.396-0.061,1.668-0.271,1.668-1.768v-10.204
				c0-1.497-0.272-1.708-1.668-1.768v-0.412c0.573,0.04,1.567,0.061,2.632,0.061c0.944,0,1.978-0.02,2.611-0.061V168.757z"/>
		</g>
	</g>
	<g>
		<g>
			<path style="fill:#263238;" d="M152.661,161.03v0.349c-0.459,0.102-0.977,0.467-1.376,1.512l-4.087,10.544h-0.144
				c-0.051,0-0.085,0-0.136,0l-4.248-10.943c-0.348-0.884-0.832-1.096-1.198-1.113v-0.349c0.467,0.034,1.198,0.051,1.861,0.051
				c0.9,0,1.741-0.017,2.226-0.051v0.349c-0.833,0.034-1.232,0.161-1.232,0.645c0,0.204,0.067,0.467,0.203,0.816l3.152,8.36
				l2.838-7.349c0.229-0.595,0.348-1.062,0.348-1.419c0-0.765-0.527-1.028-1.521-1.053v-0.349c0.662,0.034,1.393,0.051,2.005,0.051
				C151.947,161.081,152.313,161.064,152.661,161.03z"/>
		</g>
	</g>
	<g>
		<g>
			<path style="fill:#263238;" d="M232.216,142.064c0,1.271,0.382,1.861,1.612,1.861v0.444c-0.445-0.041-0.889-0.062-1.313-0.062
				c-0.827,0-1.592,0.083-2.202,0.3v-2.501c-0.723,1.84-2.118,2.543-3.473,2.543c-0.992,0-1.716-0.3-2.202-0.806
				c-0.527-0.568-0.703-1.437-0.703-2.77v-5.312c0-1.271-0.372-1.871-1.602-1.871v-0.444c0.444,0.041,0.889,0.062,1.313,0.062
				c0.827,0,1.581-0.083,2.202-0.289v8.32c0,1.313,0.082,2.429,1.602,2.429c1.653,0,2.863-1.674,2.863-3.835v-4.372
				c0-1.271-0.382-1.871-1.612-1.871v-0.444c0.445,0.041,0.889,0.062,1.313,0.062c0.827,0,1.592-0.083,2.202-0.289V142.064z"/>
		</g>
	</g>
	<g>
		<g>
			<path style="fill:#263238;" d="M203.349,128.017c4.918,0.652,6.346,3.081,6.346,5.602c0,3.537-2.809,6.026-7.469,6.026
				c-0.925,0-2.793-0.091-5.343-0.091c-1.458,0-2.991,0.03-3.856,0.091v-0.622c2.109-0.091,2.519-0.41,2.519-2.672v-15.423
				c0-2.261-0.41-2.58-2.519-2.671v-0.622c0.865,0.061,2.428,0.091,3.795,0.091c1.957,0,3.947-0.061,4.69-0.061
				c4.357,0,6.558,2.019,6.558,4.888c0,2.201-1.246,4.342-4.722,5.404V128.017z M198.431,120.928v7.029h2.095
				c3.66,0,4.57-2.368,4.57-5.071c0-3.051-1.246-4.63-4.357-4.63C198.841,118.256,198.431,118.788,198.431,120.928z
				 M206.582,133.482c0-3.157-1.593-4.994-5.54-4.994h-2.611v7.863c0,2.171,0.41,2.581,2.339,2.581
				C204.837,138.932,206.582,136.974,206.582,133.482z"/>
		</g>
	</g>
	<g>
	<!-- S -->
		<path style="fill:#263238;" d="M237.369,165.908c0.475,0.302,0.734,0.418,1.007,0.418c0.375,0,0.533-0.447,0.648-1.296h0.676
			c-0.086,1.036-0.144,2.304-0.144,6.018h-0.676c-0.216-2.808-1.569-5.673-4.838-5.673c-2.102,0-3.599,1.397-3.599,3.427
			c0,2.678,2.304,3.743,4.953,5.399c3.066,1.915,5.313,3.47,5.313,6.637c0,3.744-2.836,5.601-6.263,5.601
			c-2.088,0-3.182-0.562-4.032-1.094c-0.475-0.303-0.763-0.418-1.007-0.418c-0.375,0-0.533,0.447-0.648,1.296h-0.677
			c0.086-1.209,0.115-2.908,0.115-7.069h0.677c0.245,3.57,1.598,6.695,5.37,6.695c1.915,0,3.83-1.152,3.83-3.93
			c0-2.39-1.857-3.744-4.593-5.385c-2.808-1.685-5.255-3.283-5.255-6.608c0-3.484,2.635-5.111,5.543-5.111
			C235.713,164.814,236.577,165.376,237.369,165.908z"/>
	</g>
	<g>
		<!-- e -->
		<path style="fill:#263238;" d="M212.853,171.667c-0.648,1.973-2.592,3.959-5.515,3.959c-4.276,0-6.781-3.124-6.781-7.645
			c0-5.183,2.621-8.365,6.666-8.365c3.456,0,5.514,2.03,5.514,6.479h-9.215c-0.072,0.562-0.1,1.238-0.1,1.886
			c0,4.046,2.246,6.407,4.506,6.407c1.772,0,3.312-0.749,4.334-2.951L212.853,171.667z M203.48,165.534h6.421
			c0.101-2.88-0.82-5.356-2.793-5.356C205.352,160.178,203.797,161.82,203.48,165.534z"/>
	</g>
</g>
<g id="Character_1">
	<g>
		<path style="fill:#008B8B;" d="M88.389,337.521l-10.567,23.168l16.731,8.345l6.502-13.503c2.393-4.287,1.169-10.595-1.971-14.37
			C97.785,339.6,93.655,336.278,88.389,337.521z"/>
		<path style="opacity:0.2;fill:#FFFFFF;" d="M88.389,337.521l-10.567,23.168l16.731,8.345l6.502-13.503
			c2.393-4.287,1.169-10.595-1.971-14.37C97.785,339.6,93.655,336.278,88.389,337.521z"/>
		<path style="fill:#008f39;" d="M117.164,327.601c0,0,17.463,4.077,21.797,11.341c4.334,7.264,4.168,22.404,0.984,39.45
			s1.322,18.219-7.167,25.233s-45.767,6.3-48.938-1.75c-2.625-6.664,8.465-31.046,6.133-43.067
			c-2.332-12.02-6.06-19.022,1.311-24.589C98.657,328.653,117.164,327.601,117.164,327.601z"/>
		<path style="opacity:0.4;fill:#FFFFFF;" d="M117.164,327.601c0,0,17.463,4.077,21.797,11.341
			c4.334,7.264,4.168,22.404,0.984,39.45s1.322,18.219-7.167,25.233s-45.767,6.3-48.938-1.75
			c-2.625-6.664,8.465-31.046,6.133-43.067c-2.332-12.02-6.06-19.022,1.311-24.589C98.657,328.653,117.164,327.601,117.164,327.601z
			"/>
		<g>
			<g>
				<g>
					<g>
						<g> 
							<!-- cabelo -->
							<path style="fill:#263238;" d="M96.588,292.794c-1.787-1.215-6.599-0.23-8.181,3.283c-1.689,3.75-3.399,10.363-5.725,9.26
								c0,0,1.49,2.73,4.875,2.178c0,0-1.484,2.641-4.234,2.435c0,0,2.081,3.758,7.03,3.339c4.544-0.385,7.717-14.387,8.206-16.676
								C98.023,294.34,97.871,294.468,96.588,292.794z"/>
						</g>
						<g>
							<path style="fill:#263238;" d="M99.447,292.71c3.799-1.343,8.016-1.166,11.587,0.701c2.331,1.219,4.356,3.083,4.301,5.875
								c-0.127,6.513-1.961,17.405-1.961,17.405l-21.969-9.975c0,0-1.488-5.95,0.817-9.614
								C93.423,295.194,96.639,293.702,99.447,292.71z"/>
						</g>
						<g>
							<path style="fill:#263238;" d="M95.947,293.172c0,0,5.347-6.074,15.362-1.721c10.015,4.354,4.128,17.852,4.128,17.852
								s-1.546,5.722,1.156,6.406c0,0-1.386,0.957-2.55,1.09c0,0,1.187,1.348,2.216,0.967c0,0-1.337,0.937-4.237,0.376
								C109.121,317.58,95.947,293.172,95.947,293.172z"/>
						</g>
						<g>
							<g>
							<!-- pescoço -->
								<path style="fill:#FFB573;" d="M103.754,324.773l-0.001,0.009c0.016,0.028,0.023,0.046,0.039,0.074l1.378,3.606
									c0.161,0.749,0.252,1.502,0.272,2.241c0.019,0.623-0.014,1.234-0.082,1.825c-0.405,1.4-0.333,3.816,2.088,3.486
									c3.645-0.497,9.803-6.433,9.872-8.072c-2.227-4.82-4.269-10.515-4.506-15.322l-3.693,4.962L103.754,324.773z"/>
							</g>
						</g>
						<g style="opacity:0.2;">
							<g>
								<path d="M103.793,324.855l1.378,3.606c2.178-1.289,4.333-3.798,4.62-6.293c0.196-1.799-0.772-3.36-1.491-3.374
									L103.793,324.855z"/>
							</g>
						</g>
						<g>
							<g>
								<!-- rosto -->
								<path style="fill:#FFB573;" d="M93.7,318.074c0.302,0.784,0.629,1.553,0.972,2.309c3.049,6.674,11.654,6.389,16.42,0.722
									c0.007-0.011,0.005-0.02,0.014-0.022c0.422-0.503,0.817-1.047,1.173-1.639c2.901-4.801,1.688-8.122,0.35-15.815
									c-1.336-7.684-10.131-11.635-16.73-6.922C89.808,301.057,90.659,310.24,93.7,318.074z"/>
							</g>
						</g>
						<g>
							<path style="fill:#263238;" d="M101.996,310.55c0.155,0.604-0.04,1.175-0.434,1.276c-0.395,0.101-0.84-0.306-0.994-0.91
								c-0.155-0.603,0.04-1.174,0.434-1.276C101.396,309.539,101.842,309.947,101.996,310.55"/>
						</g>
						<g>
							<path style="fill:#263238;" d="M95.671,312.085c0.155,0.604-0.04,1.175-0.434,1.276c-0.394,0.101-0.84-0.306-0.994-0.91
								c-0.155-0.603,0.04-1.175,0.434-1.276C95.071,311.074,95.516,311.481,95.671,312.085"/>
						</g>
						<g>
							<g>
								<path style="fill:#263238;" d="M100.882,318.678c-0.132,0.016-0.211,0.018-0.216,0.018
									c-0.133,0.002-0.242-0.103-0.245-0.235c-0.002-0.132,0.102-0.239,0.236-0.245c0.13-0.002,3.297-0.111,3.349-3.726
									c0.001-0.132,0.113-0.242,0.243-0.237c0.133,0.002,0.239,0.111,0.237,0.244
									C104.437,318.004,101.684,318.583,100.882,318.678z"/>
							</g>
						</g>
						<g>
							<path style="fill:#263238;" d="M112.791,304.343c0,0-2.326,0.357-2.215,2.368c0.111,2.012,0.346,2.253,0.346,2.253
								l-2.7,0.866c0,0-0.03-7.711-2.032-7.405c-2.001,0.306-0.179-3.353-1.44-3.722c-2.974-0.872-10.753-0.132-13.262,4.861
								c0,0,0.311-4.7,3.739-7.574c3.428-2.874,10.794-4.173,14.175-0.841C112.784,298.481,112.791,304.343,112.791,304.343z"/>
						</g>
						<g>
							<g>
							<!-- orelha -->
								<path style="fill:#FFB573;" d="M117.086,307.911c-0.09,2.102-1.142,3.967-2.434,5.116c-1.944,1.728-4.052,0.264-4.464-2.165
									c-0.371-2.187,0.194-5.722,2.603-6.518C115.164,303.559,117.188,305.508,117.086,307.911"/>
							</g>
						</g>
					</g>
					<g>
						<g>
							<path style="fill:#263238;" d="M92.437,309.814c0.105-0.025,0.194-0.105,0.225-0.216c0.142-0.498,0.392-0.845,0.742-1.035
								c0.576-0.31,1.262-0.108,1.27-0.106c0.159,0.051,0.337-0.038,0.388-0.203c0.051-0.163-0.04-0.337-0.203-0.388
								c-0.037-0.012-0.937-0.286-1.748,0.151c-0.503,0.271-0.854,0.745-1.044,1.409c-0.048,0.165,0.048,0.336,0.213,0.383
								C92.333,309.826,92.387,309.826,92.437,309.814z"/>
						</g>
					</g>
					<g>
						<g>
							<path style="fill:#263238;" d="M103.788,307.405c0.048-0.015,0.094-0.041,0.133-0.078c0.137-0.129,0.146-0.344,0.017-0.482
								c-0.03-0.032-0.743-0.786-1.76-0.811c-0.631-0.015-1.227,0.248-1.772,0.782c-0.136,0.132-0.138,0.349-0.006,0.484
								c0.133,0.135,0.349,0.137,0.484,0.005c0.407-0.398,0.835-0.596,1.272-0.587c0.726,0.014,1.276,0.588,1.281,0.594
								C103.531,307.41,103.667,307.441,103.788,307.405z"/>
						</g>
					</g>
					<g>
						<g>
						<!-- nariz -->
							<path style="fill:#ED893E;" d="M97.571,310.106c0,0,0.018,2.057-1.219,3.727c-1.237,1.67,2.089,2.099,2.089,2.099
								L97.571,310.106z"/>
						</g>
					</g>
				</g>
			</g>
		</g>
		<path style="fill:#263238;" d="M111.404,404.576c0,0-52.98-27.717-60.125-7.062c-5.703,16.486,31.794,39.664,64.278,41.4
			L111.404,404.576z"/>
		<g>
		<!-- tornozelo -->
			<polygon style="fill:#FFB573;" points="84.926,430.573 97.419,430.035 92.404,436.632 80.334,437.393 			"/>
			<!-- sapato -->
			<path style="fill:#008f39;" d="M88.298,430.124c0,0-8.717-2.41-12.3-0.454c-5.621,3.069-15.09,7.247-14.025,11.851
				c1.065,4.604,20.531-3.403,20.531-3.403L88.298,430.124z"/>
			<path style="fill:#008f39;" d="M84.724,432.999c0,0,2.944,0.216,2.33,2.498c-0.614,2.282-4.55,2.622-4.55,2.622L84.724,432.999z"
				/>
		</g>
		<path style="fill:#263238;" d="M102.347,403.641c0,0,57.451-24.606,59.804-1.122c1.735,17.319-34.113,32.75-72.985,35.574
			L102.347,403.641z"/>
		<path style="opacity:0.2;" d="M114.394,430.035c-9.489-6.681-24.24-15.836-39.99-25.46c12.66,6.32,21.223,10.952,27.5,14.758
			c7.5-4.58,17.97-8.058,26.81-10.728c-7.69,4-18.15,8.62-25.06,12.69C111.574,426.746,114.264,429.875,114.394,430.035z"/>
		<g>
			<polygon style="fill:#FFB573;" points="120.118,431.387 114.73,432.08 115.465,438.159 125.07,437.95 			"/>
			<!-- sapato -->
			<path style="fill:#008f39;" d="M116.728,431.119c0,0,8.575-2.874,12.258-1.113c5.777,2.763,15.456,6.427,14.64,11.082
				c-0.816,4.655-20.683-2.298-20.683-2.298L116.728,431.119z"/>
			<path style="fill:#008f39;" d="M120.451,433.798c0,0-2.928,0.373-2.193,2.619c0.735,2.246,4.684,2.374,4.684,2.374
				L120.451,433.798z"/>
		</g>
		<!-- braço -->
		<path style="fill:#FFB573;" d="M143.028,354.103c1.318,5.774,2.37,11.474,3.161,17.326c0.409,2.918,0.731,5.859,0.997,8.847
			c0.219,3.006,0.429,6.002,0.32,9.301c-0.033,0.833-0.084,1.69-0.19,2.626c-0.123,0.957-0.227,1.909-0.697,3.366
			c-0.058,0.176-0.121,0.359-0.218,0.589c-0.099,0.231-0.158,0.394-0.304,0.673c-0.146,0.275-0.255,0.489-0.458,0.797
			c-0.107,0.159-0.219,0.316-0.336,0.468c-0.121,0.155-0.218,0.286-0.409,0.486c-0.172,0.182-0.354,0.358-0.542,0.523
			c-0.107,0.091-0.161,0.145-0.315,0.26c-0.145,0.108-0.295,0.212-0.449,0.309c-0.665,0.422-1.162,0.595-1.742,0.771
			c-0.945,0.246-1.732,0.254-2.244,0.22c-1.099-0.077-1.739-0.285-2.336-0.468c-0.581-0.191-1.044-0.389-1.499-0.59
			c-1.734-0.804-3.069-1.639-4.397-2.491c-1.314-0.849-2.541-1.743-3.749-2.635c-4.813-3.586-9.202-7.398-13.499-11.453l3.926-5.1
			c4.881,2.915,9.839,5.866,14.714,8.528c1.218,0.663,2.445,1.28,3.633,1.863c1.176,0.571,2.387,1.101,3.324,1.383
			c0.216,0.059,0.429,0.114,0.541,0.121c0.095,0.012,0.162-0.033-0.216-0.076c-0.152-0.008-0.578-0.04-1.172,0.126
			c-0.413,0.109-0.732,0.237-1.253,0.548c-0.116,0.074-0.228,0.153-0.335,0.237l-0.215,0.169c-0.124,0.102-0.241,0.214-0.35,0.333
			c-0.731,0.854-0.681,1.04-0.756,1.102c-0.049,0.076,0.009-0.414-0.004-0.891c-0.002-0.501-0.027-1.086-0.07-1.694
			c-0.182-2.466-0.548-5.214-0.999-7.931c-0.42-2.735-0.935-5.497-1.438-8.27l-3.139-16.672L143.028,354.103z"/>
		<path style="fill:#FFB573;" d="M90.028,379.967c-2.609,3.679-5.324,7.2-8.394,10.614c-0.748,0.856-1.541,1.701-2.379,2.548
			c-0.861,0.847-1.7,1.681-2.857,2.579c-0.292,0.233-0.629,0.455-1.023,0.713c-0.406,0.235-0.833,0.516-1.795,0.841
			c-0.181,0.06-0.612,0.159-0.93,0.21c-0.171,0.014-0.489,0.043-0.728,0.036l-0.398,0.007c-0.125-0.009-0.365-0.039-0.548-0.058
			c-0.194-0.042-0.389-0.084-0.572-0.138c-0.183-0.054-0.366-0.107-0.63-0.205c-0.47-0.197-0.919-0.462-1.312-0.785
			c-0.404-0.334-0.765-0.738-1.057-1.154c-0.234-0.349-0.423-0.71-0.566-1.083l-0.096-0.283l-0.06-0.193l-0.11-0.396
			c-0.05-0.227-0.09-0.579-0.104-0.715c-0.003-0.159-0.018-0.341-0.032-0.523c0.008-0.171,0.005-0.33,0.015-0.433
			c0.007-0.216,0.048-0.502,0.056-0.673l0.105-0.514c0.147-0.708,0.304-1.463,0.476-2.046c0.172-0.584,0.317-1.218,0.515-1.763
			c1.762-4.861,3.372-8.691,5.108-12.821c1.692-4.061,3.875-8.722,5.865-12.663l9.684,4.813c-1.729,3.857-3.553,8.831-5.397,12.632
			c0,0.023-0.011,0.023-0.011,0.034c0.998-0.826,1.997-1.641,2.996-2.456L90.028,379.967z"/>
		<path style="opacity:0.2;" d="M84.269,376.303c0,0-10.419,6.28-12.372,8.449c0,0,7.363-7.331,13.084-11.022L84.269,376.303z"/>
		<!-- manga direita -->
		<path style="fill:#008B8B;" d="M137.586,337.345c3.492,3.159,8.235,11.972,9.286,29.471l-16.449,1.004
			c0,0-4.112-15.549-3.881-24.539c0.087-3.371,1.289-5.326,2.759-6.452C131.764,334.941,135.285,335.263,137.586,337.345z"/>
		<path style="opacity:0.2;fill:#FFFFFF;" d="M137.586,337.345c3.492,3.159,8.235,11.972,9.286,29.471l-16.449,1.004
			c0,0-4.112-15.549-3.881-24.539c0.087-3.371,1.289-5.326,2.759-6.452C131.764,334.941,135.285,335.263,137.586,337.345z"/>
		<!-- livro na mão -->
		<polygon style="fill:#008B8B;" points="86.287,385.408 101.033,390.499 117.665,388.751 115.716,365.192 99.577,366.637 
			84.766,361.742 		"/>
		<polygon style="fill:#F5F5F5;" points="85.304,361.92 86.463,361.127 99.636,365.539 114.912,364.132 115.001,365.263 
			99.577,366.637 		"/>
		<polygon style="opacity:0.2;" points="99.577,366.637 101.033,390.499 86.287,385.408 84.766,361.742 		"/>
		<g>
		<!-- mão -->
			<path style="fill:#FFB573;" d="M118.403,376.029c0,0,0.435-0.454-0.22-2.081c-0.655-1.628-1.471-2.494-1.992-3.019l0.343,4.9
				c0,0-3.233,1.722-3.442,4.249c-0.423,5.098,2.914,6.459,3.97,6.747c1.056,0.289,2.838-2.68,2.911-5.748
				C120.046,378.009,118.403,376.029,118.403,376.029z"/>
		</g>
		<g>
			<path style="fill:#FFB573;" d="M83.635,374.443c0,0-0.487-0.397-0.034-2.093c0.452-1.695,1.157-2.655,1.61-3.239l0.343,4.874
				c0,0,3.331,1.347,3.847,3.83c1.04,5.009-2.107,6.765-3.119,7.18c-1.013,0.415-3.143-2.314-3.589-5.351
				C82.245,376.609,83.635,374.443,83.635,374.443z"/>
		</g>
	</g>
</g>
</svg>
